<?xml version="1.0" encoding="UTF-8"?>
<svg id="Line__x26__Text" xmlns="http://www.w3.org/2000/svg" version="1.1" viewBox="0 0 617 116">
  <!-- Generator: Adobe Illustrator 29.2.1, SVG Export Plug-In . SVG Version: 2.1.0 Build 116)  -->
  <defs>
    <style>
      .st0 {
        fill: #fefefe;
      }
    </style>
  </defs>
  <g>
    <path class="st0" d="M32.83,53.74v20.03c12.02-6.02,26.11-9.4,39.33-9.4s27.31,3.38,39.33,9.4v-20.03c-12.01-6.24-26.13-9.71-39.33-9.71s-27.32,3.47-39.33,9.71ZM49.44,53.43c-1.02.28-2.05.59-3.06.91v-1.08l-4.39,1.53v3.28s4.05-1.46,5.68-1.95l1.77,1.15v4.7l-2.5,3.16c-1.91.59-3.82,1.26-5.69,1.98-.75-.47-1.49-.93-2.22-1.37v-1.76c.98-.41,1.97-.81,2.97-1.19v1.72l.43-.16c1.21-.45,3.96-1.37,3.96-1.37v-4.22s-4.07,1.38-5.76,2.05l-1.6-1.08v-3.87l2.4-3.35c1.85-.72,3.76-1.39,5.68-1.98.77.5,1.56,1.02,2.34,1.54v1.35ZM59.57,50.21v9.57s1.24-.17,1.24-.17v2.49c-1.87.25-3.75.56-5.6.93v-2.49l1.23-.24s0-9.58,0-9.58l-2.62.53v1.69c-.8.17-1.61.37-2.41.56v-4.18c4.36-1.1,8.82-1.85,13.28-2.23v4.19c-.82.07-1.64.15-2.46.25v-1.69l-2.67.35ZM93.02,61.61l1.24.33s0-9.59,0-9.59c0,0-1.24-.33-1.24-.33v-2.49c3.95,1.03,7.86,2.37,11.63,3.97v3.35c-.98-.41-1.98-.81-2.97-1.19v-.89s-4.36-1.51-4.36-1.51v3.54s2.82.95,4.1,1.43v2.23c-1.22-.45-4.1-1.42-4.1-1.42v3.82l4.36,1.53v-1.11c.99.38,1.99.78,2.97,1.19v3.56c-3.78-1.59-7.69-2.91-11.63-3.94v-2.48ZM77.5,46.99c4.46.3,8.94.97,13.31,1.99v4.18c-.8-.19-1.61-.36-2.41-.53v-1.69l-2.66-.49v9.57s1.23.22,1.23.22v2.49c-1.85-.34-3.74-.62-5.61-.84v-2.49l1.24.15s0-9.57,0-9.57l-2.64-.3v1.69c-.81-.08-1.64-.15-2.46-.2v-4.2ZM77.02,59.03s.9.06,1.28.09v2.5c-1.78-.14-3.58-.22-5.36-.24v-2.5l1.18.02s-.79-2.27-.79-2.27l-4.79.05-.83,2.28s1.2-.04,1.2-.04v2.5c-1.69.06-3.4.17-5.08.33v-2.49l1.18-.11s4.38-12.32,4.38-12.32c1.14-.03,2.3-.04,3.45-.03l4.19,12.23Z"/>
    <path class="st0" d="M122.14,60.56l4.33-9.47c-7.14-5.29-17.84-9.63-17.84-9.63l3.74-6.01v-10.54h-27.25l-9.31,14.47c-1.21-.05-2.43-.07-3.65-.07s-2.44.03-3.65.07l-9.31-14.47h-27.25v10.54l3.74,6.01s-10.7,4.34-17.84,9.63l4.33,9.47-6.31,20.16s5.47-3.8,12.2-7.8v8.87s3.57-2.28,7.04-4l-3.16,4.84v10.8h29.88v-22.31l10.33,16.28,10.33-16.28v22.31h29.88v-10.8l-3.16-4.84c3.46,1.72,7.04,4,7.04,4v-8.87c6.73,4,12.2,7.8,12.2,7.8l-6.31-20.16ZM114.2,69.57v8.48c-2.48-1.47-5.11-2.81-7.85-4.02v3.57l3.74,5.72v7.84h-25.31v-23.19c-.92-.13-1.84-.25-2.76-.35l-9.85,15.52-9.85-15.53c-.93.1-1.85.22-2.76.35v23.19h-25.31v-7.84l3.74-5.72v-3.57c-2.74,1.21-5.37,2.55-7.85,4.02v-8.48c-3.29,1.65-7.01,3.79-10.62,6.17l4.83-15.42-3.96-8.66c5.43-3.54,11.36-6.59,17.61-8.97v-1.89l-3.74-6.01v-7.6h23.72l9.2,14.29c1.68-.1,3.35-.16,5.01-.16s3.34.06,5.01.16l9.2-14.29h23.72v7.6l-3.74,6.01v1.89c6.25,2.38,12.18,5.43,17.61,8.97l-3.96,8.66,4.83,15.42c-3.61-2.38-7.33-4.52-10.62-6.17Z"/>
    <path class="st0" d="M37.98,45.4c-5.2,2.04-9.91,4.4-14.39,7.21l3.45,7.54-3.09,9.87c2.02-1.16,4.08-2.24,6.18-3.26v-14.66c2.36-1.23,5.85-2.95,7.85-3.74v-2.95Z"/>
    <polygon class="st0" points="69.34 54.44 72.55 54.4 70.99 49.87 69.34 54.44"/>
    <path class="st0" d="M117.29,60.15l3.45-7.54c-4.48-2.8-9.19-5.16-14.39-7.21v2.95c2,.79,5.49,2.51,7.85,3.74v14.66c2.1,1.02,4.16,2.11,6.18,3.26l-3.09-9.87Z"/>
  </g>
  <g>
    <g>
      <g>
        <path class="st0" d="M179.59,62.11v2.58c-1.76-1.65-3.65-2.47-5.67-2.47s-3.85.77-5.34,2.31c-1.49,1.51-2.23,3.34-2.23,5.5,0,2.32.86,4.22,2.58,5.7,1.5,1.3,3.16,1.95,5,1.95,2.01,0,3.9-.82,5.65-2.45v2.59c-1.79,1.21-3.67,1.81-5.64,1.81-2.66,0-4.94-.95-6.84-2.84s-2.85-4.15-2.85-6.79.95-4.97,2.86-6.88c1.93-1.91,4.25-2.86,6.94-2.86,1.92,0,3.77.62,5.53,1.84Z"/>
        <path class="st0" d="M194.6,74.01h-8.01l-2.27,5.3h-2.27l8.62-19.62,8.42,19.62h-2.29l-2.21-5.3ZM193.77,72.05l-3.13-7.5-3.2,7.5h6.33Z"/>
        <path class="st0" d="M207.11,70.93l5.94,8.38h-2.55l-5.65-8.21h-.53v8.21h-2.1v-18.72h3.02c2.22,0,3.85.44,4.89,1.31,1.12.95,1.69,2.27,1.69,3.94,0,1.41-.43,2.58-1.3,3.52-.86.93-1.99,1.46-3.41,1.58ZM204.33,69.25h1.31c1.34,0,2.37-.29,3.07-.87.7-.58,1.06-1.43,1.06-2.54,0-2.2-1.4-3.3-4.19-3.3h-1.25v6.72Z"/>
        <path class="st0" d="M226.53,62.54h-7.61v5.55h7.4v1.95h-7.4v7.31h7.61v1.95h-9.7v-18.72h9.7v1.95Z"/>
        <path class="st0" d="M240.57,62.54h-7.61v5.55h7.4v1.95h-7.4v7.31h7.61v1.95h-9.7v-18.72h9.7v1.95Z"/>
        <path class="st0" d="M249.79,70.93l5.94,8.38h-2.55l-5.65-8.21h-.53v8.21h-2.1v-18.72h3.02c2.22,0,3.85.44,4.89,1.31,1.12.95,1.69,2.27,1.69,3.94,0,1.41-.43,2.58-1.3,3.52-.86.93-1.99,1.46-3.41,1.58ZM247,69.25h1.31c1.34,0,2.37-.29,3.07-.87.7-.58,1.06-1.43,1.06-2.54,0-2.2-1.4-3.3-4.19-3.3h-1.25v6.72Z"/>
        <path class="st0" d="M269.76,68.2h9.57v-7.61h2.1v18.72h-2.1v-9.15h-9.57v9.15h-2.1v-18.72h2.1v7.61Z"/>
        <path class="st0" d="M285.76,69.84c0-2.59.97-4.84,2.9-6.73,1.92-1.89,4.21-2.84,6.86-2.84s4.95.95,6.86,2.86c1.91,1.91,2.86,4.18,2.86,6.83s-.96,4.96-2.89,6.85c-1.93,1.88-4.24,2.82-6.93,2.82-2.38,0-4.54-.84-6.47-2.53-2.13-1.88-3.19-4.3-3.19-7.26ZM287.86,69.84c0,2.3.8,4.2,2.39,5.7,1.52,1.42,3.25,2.13,5.2,2.13,2.14,0,3.95-.75,5.45-2.26,1.5-1.52,2.25-3.34,2.25-5.47s-.74-3.98-2.23-5.47c-1.48-1.5-3.28-2.26-5.39-2.26s-3.88.75-5.4,2.25c-1.5,1.5-2.26,3.29-2.26,5.38Z"/>
        <path class="st0" d="M314.48,70.93l5.94,8.38h-2.55l-5.65-8.21h-.53v8.21h-2.1v-18.72h3.02c2.22,0,3.85.44,4.89,1.31,1.12.95,1.69,2.27,1.69,3.94,0,1.41-.43,2.58-1.3,3.52-.86.93-1.99,1.46-3.41,1.58ZM311.69,69.25h1.31c1.34,0,2.37-.29,3.07-.87.7-.58,1.06-1.43,1.06-2.54,0-2.2-1.39-3.3-4.18-3.3h-1.25v6.72Z"/>
        <path class="st0" d="M326.3,60.58v18.72h-2.1v-18.72h2.1Z"/>
        <path class="st0" d="M333.34,77.35h9.96v1.95h-13.43l10.21-16.77h-8.9v-1.95h12.38l-10.23,16.77Z"/>
        <path class="st0" d="M346.13,69.84c0-2.59.97-4.84,2.9-6.73,1.92-1.89,4.21-2.84,6.86-2.84s4.95.95,6.86,2.86c1.91,1.91,2.86,4.18,2.86,6.83s-.96,4.96-2.89,6.85c-1.93,1.88-4.24,2.82-6.93,2.82-2.38,0-4.54-.84-6.47-2.53-2.13-1.88-3.19-4.3-3.19-7.26ZM348.23,69.84c0,2.3.8,4.2,2.39,5.7,1.52,1.42,3.25,2.13,5.2,2.13,2.14,0,3.95-.75,5.45-2.26,1.5-1.52,2.25-3.34,2.25-5.47s-.75-3.98-2.23-5.47c-1.48-1.5-3.28-2.26-5.39-2.26s-3.88.75-5.4,2.25c-1.51,1.5-2.26,3.29-2.26,5.38Z"/>
        <path class="st0" d="M369.96,79.3v-19.51l14.59,15.29v-14.5h2.1v19.56l-14.59-15.26v14.43h-2.1Z"/>
        <path class="st0" d="M402.01,63.19l-1.66,1.08c-.46-.76-.93-1.29-1.42-1.59-.47-.3-1.06-.45-1.78-.45-.88,0-1.62.27-2.22.82-.59.54-.89,1.23-.89,2.06,0,1.11.88,2.05,2.65,2.81l1.79.79c1.51.66,2.59,1.39,3.24,2.19.66.78,1,1.77,1,2.96,0,1.63-.57,3-1.72,4.1-1.16,1.11-2.57,1.66-4.23,1.66-1.48,0-2.72-.42-3.74-1.26-1.01-.83-1.69-2.02-2.04-3.56l2.03-.57c.51,2.29,1.78,3.44,3.82,3.44,1.04,0,1.92-.36,2.67-1.08.73-.71,1.09-1.58,1.09-2.61,0-.78-.23-1.43-.7-1.95-.46-.52-1.28-1.04-2.46-1.56l-1.7-.78c-.69-.3-1.27-.61-1.74-.94s-.86-.67-1.16-1.04c-.59-.71-.89-1.59-.89-2.63,0-1.38.49-2.53,1.48-3.46,1-.92,2.25-1.38,3.76-1.38,2.09,0,3.7.98,4.83,2.93Z"/>
        <path class="st0" d="M429.51,62.11v2.58c-1.76-1.65-3.65-2.47-5.67-2.47s-3.85.77-5.34,2.31c-1.49,1.51-2.23,3.34-2.23,5.5,0,2.32.86,4.22,2.58,5.7,1.5,1.3,3.16,1.95,5,1.95,2.01,0,3.9-.82,5.65-2.45v2.59c-1.79,1.21-3.67,1.81-5.64,1.81-2.66,0-4.94-.95-6.84-2.84s-2.85-4.15-2.85-6.79.95-4.97,2.86-6.88c1.93-1.91,4.25-2.86,6.94-2.86,1.92,0,3.77.62,5.53,1.84Z"/>
        <path class="st0" d="M443.55,62.54h-7.61v5.55h7.4v1.95h-7.4v7.31h7.61v1.95h-9.7v-18.72h9.7v1.95Z"/>
        <path class="st0" d="M447.88,79.3v-19.51l14.59,15.29v-14.5h2.1v19.56l-14.59-15.26v14.43h-2.1Z"/>
        <path class="st0" d="M474.51,62.54v16.77h-2.1v-16.77h-4.54v-1.95h11.18v1.95h-4.55Z"/>
        <path class="st0" d="M492.07,62.54h-7.61v5.55h7.4v1.95h-7.4v7.31h7.61v1.95h-9.7v-18.72h9.7v1.95Z"/>
        <path class="st0" d="M501.29,70.93l5.94,8.38h-2.55l-5.65-8.21h-.53v8.21h-2.1v-18.72h3.02c2.22,0,3.85.44,4.89,1.31,1.12.95,1.69,2.27,1.69,3.94,0,1.41-.43,2.58-1.3,3.52-.86.93-1.99,1.46-3.41,1.58ZM498.5,69.25h1.31c1.34,0,2.37-.29,3.07-.87.7-.58,1.06-1.43,1.06-2.54,0-2.2-1.39-3.3-4.18-3.3h-1.25v6.72Z"/>
      </g>
      <g>
        <path class="st0" d="M178.81,48.62v-8.82l-4.2,7.72-4.18-7.69v8.79l1.34.93v2.59h-6.69v-2.59l1.34-.93v-12.48l-1.34-.93v-2.61h5.82l3.74,6.89,3.86-6.89h5.72v2.61l-1.32.93v12.5l1.32.93v2.56h-6.72v-2.59l1.32-.93Z"/>
        <path class="st0" d="M194.42,52.14h-7.16v-2.59l1.39-.93v-12.46l-1.39-.93v-2.64h7.16v2.61l-1.37.93v12.48l1.37.93v2.59Z"/>
        <path class="st0" d="M210.08,35.53l.27.29v2.2h-4.4v-.9l-.54-.49h-3.03l-.51.49v2.78l.1.1h6.06l2.05,2.2.27.29v6.33l-3.01,3.32h-6.94l-2.69-3.05-.24-.27v-2.71h4.4v1.51l.56.68h2.93l.59-.68v-3.81l-.07-.1h-6.21l-2.2-2.64v-5.25l2.64-2.91.29-.32h6.96l2.71,2.93Z"/>
        <path class="st0" d="M226.01,35.53l.27.29v2.2h-4.4v-.9l-.54-.49h-3.03l-.51.49v2.78l.1.1h6.06l2.05,2.2.27.29v6.33l-3.01,3.32h-6.94l-2.69-3.05-.24-.27v-2.71h4.4v1.51l.56.68h2.93l.59-.68v-3.81l-.07-.1h-6.21l-2.2-2.64v-5.25l2.64-2.91.29-.32h6.96l2.71,2.93Z"/>
        <path class="st0" d="M236.5,52.14h-7.16v-2.59l1.39-.93v-12.46l-1.39-.93v-2.64h7.16v2.61l-1.37.93v12.48l1.37.93v2.59Z"/>
        <path class="st0" d="M252.16,35.53l.27.29v2.2h-4.4v-.9l-.54-.49h-3.03l-.51.49v2.78l.1.1h6.06l2.05,2.2.27.29v6.33l-3.01,3.32h-6.94l-2.69-3.05-.24-.27v-2.71h4.4v1.51l.56.68h2.93l.59-.68v-3.81l-.07-.1h-6.21l-2.2-2.64v-5.25l2.64-2.91.29-.32h6.96l2.71,2.93Z"/>
        <path class="st0" d="M268.09,35.53l.27.29v2.2h-4.4v-.9l-.54-.49h-3.03l-.51.49v2.78l.1.1h6.06l2.05,2.2.27.29v6.33l-3.01,3.32h-6.94l-2.69-3.05-.24-.27v-2.71h4.4v1.51l.56.68h2.93l.59-.68v-3.81l-.07-.1h-6.21l-2.2-2.64v-5.25l2.64-2.91.29-.32h6.96l2.71,2.93Z"/>
        <path class="st0" d="M278.57,52.14h-7.16v-2.59l1.39-.93v-12.46l-1.39-.93v-2.64h7.16v2.61l-1.37.93v12.48l1.37.93v2.59Z"/>
        <path class="st0" d="M295.43,35.6l.27.29v6.33l-2.72,2.88-.29.32h-5.29v3.2l1.47.93v2.59h-7.23v-2.59l1.39-.93v-12.46l-1.39-.93v-2.64h11.07l2.74,3ZM291.3,37.14l-.49-.51h-3.42v4.84h3.42l.49-.51v-3.81Z"/>
        <path class="st0" d="M312,35.6l.27.29v6.33l-2.72,2.88-.29.32h-5.29v3.2l1.47.93v2.59h-7.23v-2.59l1.39-.93v-12.46l-1.39-.93v-2.64h11.07l2.74,3ZM307.87,37.14l-.49-.51h-3.42v4.84h3.42l.49-.51v-3.81Z"/>
        <path class="st0" d="M321.92,52.14h-7.16v-2.59l1.39-.93v-12.46l-1.39-.93v-2.64h7.16v2.61l-1.37.93v12.48l1.37.93v2.59Z"/>
        <path class="st0" d="M347.97,35.53l.27.29v2.2h-4.4v-.9l-.54-.49h-3.03l-.51.49v2.78l.1.1h6.06l2.05,2.2.27.29v6.33l-3.01,3.32h-6.94l-2.69-3.05-.24-.27v-2.71h4.4v1.51l.56.68h2.93l.59-.68v-3.81l-.07-.1h-6.21l-2.2-2.64v-5.25l2.64-2.91.29-.32h6.96l2.71,2.93Z"/>
        <path class="st0" d="M350.43,32.6h15.66v6.18h-3.62v-2.15h-2.03v11.99l1.37.93v2.59h-7.13v-2.59l1.37-.93v-11.99h-2v2.15h-3.62v-6.18Z"/>
        <path class="st0" d="M381.37,49.57v2.56h-6.82v-2.61l1.34-.83-.81-2.66h-4.54l-.86,2.66,1.34.83v2.61h-6.5v-2.54l1.27-1.03,4.72-15.26.22-.71h4.52l4.72,15.95,1.39,1.03ZM374.01,42.39l-1.15-3.88-1.2,3.88h2.35Z"/>
        <path class="st0" d="M379.71,32.6h15.66v6.18h-3.62v-2.15h-2.03v11.99l1.37.93v2.59h-7.13v-2.59l1.37-.93v-11.99h-2v2.15h-3.62v-6.18Z"/>
        <path class="st0" d="M397.57,32.6h14.25v6.11h-4.4v-2.08h-4.06v3.74h4.72v3.69h-4.72v4.1h4.06v-1.44h4.4v5.42h-14.25v-2.59l1.39-.93v-12.46l-1.39-.93v-2.64Z"/>
        <path class="st0" d="M434.15,32.6h6.94v2.66l-1.59.93v12.72l-2.69,2.91-.29.32h-6.89l-2.98-3.22v-12.75l-1.39-.93v-2.64h6.62v2.47l-.83.93v11.65l.46.51h3.04l.51-.54v-11.6l-.9-.93v-2.49Z"/>
        <path class="st0" d="M450.71,49.52v2.61h-6.57v-2.61l1.39-.93v-12.43l-1.39-.93v-2.64h5.94l5.69,10.84v-7.33l-1.22-.93v-2.59h6.43v2.61l-1.34.93v16h-4.06l-6.23-11.87v8.33l1.37.93Z"/>
        <path class="st0" d="M471.19,52.14h-7.16v-2.59l1.39-.93v-12.46l-1.39-.93v-2.64h7.16v2.61l-1.37.93v12.48l1.37.93v2.59Z"/>
        <path class="st0" d="M483.33,32.6h7.38v2.71l-2,1-4.74,15.83h-3.79l-4.91-15.85-1.76-1.03v-2.66h7.13v2.64l-1.22.81,2.61,8.55,2.57-8.55-1.27-.81v-2.64Z"/>
        <path class="st0" d="M492.83,32.6h14.25v6.11h-4.4v-2.08h-4.06v3.74h4.72v3.69h-4.72v4.1h4.06v-1.44h4.4v5.42h-14.25v-2.59l1.39-.93v-12.46l-1.39-.93v-2.64Z"/>
        <path class="st0" d="M525.7,49.62v2.52h-6.52v-2.56l.88-.73-1.95-4.49h-2.17v4.35l.95.93v2.52h-6.74v-2.61l1.34-.93v-12.46l-1.34-.93v-2.61h11.04l3.03,3.22v5.37l-2,2.1,2.35,5.23,1.15,1.1ZM519.81,37.14l-.59-.51h-3.3v3.76h3.25l.63-.71v-2.54Z"/>
        <path class="st0" d="M540.85,35.53l.27.29v2.2h-4.4v-.9l-.54-.49h-3.03l-.51.49v2.78l.1.1h6.06l2.05,2.2.27.29v6.33l-3.01,3.32h-6.94l-2.69-3.05-.24-.27v-2.71h4.4v1.51l.56.68h2.93l.59-.68v-3.81l-.07-.1h-6.21l-2.2-2.64v-5.25l2.64-2.91.29-.32h6.96l2.71,2.93Z"/>
        <path class="st0" d="M551.33,52.14h-7.16v-2.59l1.39-.93v-12.46l-1.39-.93v-2.64h7.16v2.61l-1.37.93v12.48l1.37.93v2.59Z"/>
        <path class="st0" d="M553.53,32.6h15.66v6.18h-3.62v-2.15h-2.03v11.99l1.37.93v2.59h-7.13v-2.59l1.37-.93v-11.99h-2v2.15h-3.62v-6.18Z"/>
        <path class="st0" d="M580.43,32.6h6.38v2.54l-1.27,1.1-4.28,8.45v3.93l1.39.93v2.59h-7.11v-2.59l1.34-.93v-3.93l-4.25-8.45-1.25-1.1v-2.54h6.33v2.54l-.78.71,2.15,4.23,2.12-4.23-.78-.71v-2.54Z"/>
      </g>
      <polyline class="st0" points="144.44 17.72 144.44 98.63 147.11 98.63 147.11 17.72"/>
    </g>
    <path class="st0" d="M593.78,45.26v1.13h-2.18v5.69h-1.35v-5.69h-2.18v-1.13h5.72ZM601.15,52.08l-.25-4.01c-.02-.53-.02-1.18-.05-1.91h-.08c-.18.6-.38,1.4-.58,2.03l-1.23,3.79h-1.4l-1.23-3.89c-.12-.53-.32-1.33-.48-1.93h-.08c0,.63-.02,1.28-.05,1.91l-.25,4.01h-1.3l.5-6.82h2.03l1.18,3.34c.15.53.28,1.03.45,1.73h.02c.18-.63.33-1.2.48-1.7l1.18-3.36h1.96l.52,6.82h-1.35Z"/>
  </g>
</svg>