<?xml version="1.0" encoding="UTF-8"?>
<svg id="Line__x26__Text" xmlns="http://www.w3.org/2000/svg" version="1.1" viewBox="0 0 617 116">
  <!-- Generator: Adobe Illustrator 29.2.1, SVG Export Plug-In . SVG Version: 2.1.0 Build 116)  -->
  <defs>
    <style>
      .st0 {
        fill: #5d1725;
      }

      .st1 {
        fill: #fefefe;
      }
    </style>
  </defs>
  <g>
    <path class="st0" d="M108.69,41.74c6.27,2.39,12.23,5.45,17.68,9.01l-3.97,8.69,4.84,15.48c-3.62-2.39-7.36-4.54-10.66-6.19v8.52c-2.49-1.48-5.13-2.82-7.88-4.03v3.58l3.75,5.74v7.87h-25.41v-23.28c-.92-.13-1.84-.25-2.78-.35l-9.89,15.58-9.89-15.59c-.93.1-1.86.22-2.77.35v23.28h-25.41v-7.87l3.75-5.74v-3.58c-2.75,1.21-5.39,2.56-7.88,4.04v-8.52c-3.3,1.66-7.04,3.81-10.66,6.19l4.84-15.48-3.97-8.69c5.45-3.56,11.4-6.62,17.68-9.01v-1.89l-3.76-6.03v-7.63h23.81l9.23,14.35c1.68-.1,3.36-.16,5.03-.16s3.35.06,5.03.16l9.23-14.35h23.81v7.63l-3.76,6.03v1.89Z"/>
    <path class="st1" d="M40.04,44.47c-5.22,2.05-9.95,4.42-14.45,7.23l3.46,7.57-3.1,9.9c2.03-1.16,4.1-2.25,6.2-3.28v-14.72c2.37-1.23,5.87-2.96,7.88-3.75v-2.96Z"/>
    <path class="st1" d="M74.37,63.51c13.28,0,27.42,3.4,39.49,9.44v-20.11c-12.06-6.27-26.23-9.75-39.49-9.75s-27.42,3.48-39.49,9.75v20.11c12.07-6.04,26.21-9.44,39.49-9.44Z"/>
    <path class="st1" d="M108.69,44.47c5.22,2.05,9.95,4.42,14.45,7.23l-3.46,7.57,3.1,9.9c-2.03-1.16-4.1-2.25-6.2-3.28v-14.72c-2.37-1.23-5.87-2.96-7.88-3.75v-2.96Z"/>
    <path class="st0" d="M66.87,50.39c-.82.07-1.65.15-2.46.25v-1.69l-2.68.35v9.61s1.24-.17,1.24-.17v2.5c-1.88.25-3.76.56-5.62.94v-2.5l1.23-.24s0-9.61,0-9.61l-2.63.53v1.69c-.8.17-1.61.37-2.41.57v-4.2c4.38-1.1,8.86-1.85,13.33-2.24v4.21ZM51.55,52.53c-1.03.28-2.06.59-3.07.91v-1.08l-4.41,1.53v3.29s4.06-1.46,5.7-1.96l1.77,1.16v4.72l-2.51,3.17c-1.92.59-3.84,1.26-5.71,1.99-.75-.47-1.5-.93-2.23-1.37v-1.76c.98-.42,1.98-.82,2.98-1.2v1.72l.43-.16c1.22-.46,3.97-1.38,3.97-1.38v-4.23s-4.09,1.39-5.78,2.06l-1.61-1.08v-3.89l2.41-3.36c1.86-.72,3.77-1.39,5.7-1.99.77.5,1.56,1.02,2.35,1.55v1.36ZM93.08,52.26c-.8-.19-1.61-.36-2.42-.53v-1.69l-2.67-.49v9.61s1.24.22,1.24.22v2.5c-1.86-.34-3.75-.62-5.63-.84v-2.5l1.24.15s0-9.6,0-9.6l-2.66-.3v1.69c-.82-.08-1.64-.15-2.46-.2v-4.21c4.48.3,8.97.97,13.36,2v4.2ZM99.62,52.35v3.56s2.83.95,4.12,1.44v2.24c-1.22-.45-4.12-1.43-4.12-1.43v3.83l4.38,1.53v-1.11c1,.38,2,.78,2.98,1.2v3.57c-3.79-1.6-7.72-2.93-11.68-3.96v-2.49l1.24.33s0-9.62,0-9.62c0,0-1.25-.33-1.25-.33v-2.5c3.96,1.04,7.89,2.38,11.68,3.98v3.37c-.99-.42-1.99-.82-2.98-1.19v-.9s-4.38-1.52-4.38-1.52ZM73.18,48.95s-1.65,4.59-1.65,4.59l3.22-.04-1.57-4.55ZM80.52,60.75c-1.79-.14-3.59-.22-5.38-.24v-2.51l1.19.02s-.8-2.27-.8-2.27l-4.81.05-.84,2.29s1.2-.04,1.2-.04v2.51c-1.7.06-3.41.17-5.1.33v-2.5l1.18-.11s4.4-12.37,4.4-12.37c1.15-.03,2.31-.04,3.47-.03l4.21,12.28s.9.06,1.28.09v2.51Z"/>
  </g>
  <g>
    <g>
      <g>
        <path class="st0" d="M179.59,62.11v2.58c-1.76-1.65-3.65-2.47-5.67-2.47s-3.85.77-5.34,2.31c-1.49,1.51-2.23,3.34-2.23,5.5,0,2.32.86,4.22,2.58,5.7,1.5,1.3,3.16,1.95,5,1.95,2.01,0,3.9-.82,5.65-2.45v2.59c-1.79,1.21-3.67,1.81-5.64,1.81-2.66,0-4.94-.95-6.84-2.84s-2.85-4.15-2.85-6.79.95-4.97,2.86-6.88c1.93-1.91,4.25-2.86,6.94-2.86,1.92,0,3.77.62,5.53,1.84Z"/>
        <path class="st0" d="M194.6,74.01h-8.01l-2.27,5.3h-2.27l8.62-19.62,8.42,19.62h-2.29l-2.21-5.3ZM193.77,72.05l-3.13-7.5-3.2,7.5h6.33Z"/>
        <path class="st0" d="M207.11,70.93l5.94,8.38h-2.55l-5.65-8.21h-.53v8.21h-2.1v-18.72h3.02c2.22,0,3.85.44,4.89,1.31,1.12.95,1.69,2.27,1.69,3.94,0,1.41-.43,2.58-1.3,3.52-.86.93-1.99,1.46-3.41,1.58ZM204.33,69.25h1.31c1.34,0,2.37-.29,3.07-.87.7-.58,1.06-1.43,1.06-2.54,0-2.2-1.4-3.3-4.19-3.3h-1.25v6.72Z"/>
        <path class="st0" d="M226.53,62.54h-7.61v5.55h7.4v1.95h-7.4v7.31h7.61v1.95h-9.7v-18.72h9.7v1.95Z"/>
        <path class="st0" d="M240.57,62.54h-7.61v5.55h7.4v1.95h-7.4v7.31h7.61v1.95h-9.7v-18.72h9.7v1.95Z"/>
        <path class="st0" d="M249.79,70.93l5.94,8.38h-2.55l-5.65-8.21h-.53v8.21h-2.1v-18.72h3.02c2.22,0,3.85.44,4.89,1.31,1.12.95,1.69,2.27,1.69,3.94,0,1.41-.43,2.58-1.3,3.52-.86.93-1.99,1.46-3.41,1.58ZM247,69.25h1.31c1.34,0,2.37-.29,3.07-.87.7-.58,1.06-1.43,1.06-2.54,0-2.2-1.4-3.3-4.19-3.3h-1.25v6.72Z"/>
        <path class="st0" d="M269.76,68.2h9.57v-7.61h2.1v18.72h-2.1v-9.15h-9.57v9.15h-2.1v-18.72h2.1v7.61Z"/>
        <path class="st0" d="M285.76,69.84c0-2.59.97-4.84,2.9-6.73,1.92-1.89,4.21-2.84,6.86-2.84s4.95.95,6.86,2.86c1.91,1.91,2.86,4.18,2.86,6.83s-.96,4.96-2.89,6.85c-1.93,1.88-4.24,2.82-6.93,2.82-2.38,0-4.54-.84-6.47-2.53-2.13-1.88-3.19-4.3-3.19-7.26ZM287.86,69.84c0,2.3.8,4.2,2.39,5.7,1.52,1.42,3.25,2.13,5.2,2.13,2.14,0,3.95-.75,5.45-2.26,1.5-1.52,2.25-3.34,2.25-5.47s-.74-3.98-2.23-5.47c-1.48-1.5-3.28-2.26-5.39-2.26s-3.88.75-5.4,2.25c-1.5,1.5-2.26,3.29-2.26,5.38Z"/>
        <path class="st0" d="M314.48,70.93l5.94,8.38h-2.55l-5.65-8.21h-.53v8.21h-2.1v-18.72h3.02c2.22,0,3.85.44,4.89,1.31,1.12.95,1.69,2.27,1.69,3.94,0,1.41-.43,2.58-1.3,3.52-.86.93-1.99,1.46-3.41,1.58ZM311.69,69.25h1.31c1.34,0,2.37-.29,3.07-.87.7-.58,1.06-1.43,1.06-2.54,0-2.2-1.39-3.3-4.18-3.3h-1.25v6.72Z"/>
        <path class="st0" d="M326.3,60.58v18.72h-2.1v-18.72h2.1Z"/>
        <path class="st0" d="M333.34,77.35h9.96v1.95h-13.43l10.21-16.77h-8.9v-1.95h12.38l-10.23,16.77Z"/>
        <path class="st0" d="M346.13,69.84c0-2.59.97-4.84,2.9-6.73,1.92-1.89,4.21-2.84,6.86-2.84s4.95.95,6.86,2.86c1.91,1.91,2.86,4.18,2.86,6.83s-.96,4.96-2.89,6.85c-1.93,1.88-4.24,2.82-6.93,2.82-2.38,0-4.54-.84-6.47-2.53-2.13-1.88-3.19-4.3-3.19-7.26ZM348.23,69.84c0,2.3.8,4.2,2.39,5.7,1.52,1.42,3.25,2.13,5.2,2.13,2.14,0,3.95-.75,5.45-2.26,1.5-1.52,2.25-3.34,2.25-5.47s-.75-3.98-2.23-5.47c-1.48-1.5-3.28-2.26-5.39-2.26s-3.88.75-5.4,2.25c-1.51,1.5-2.26,3.29-2.26,5.38Z"/>
        <path class="st0" d="M369.96,79.3v-19.51l14.59,15.29v-14.5h2.1v19.56l-14.59-15.26v14.43h-2.1Z"/>
        <path class="st0" d="M402.01,63.19l-1.66,1.08c-.46-.76-.93-1.29-1.42-1.59-.47-.3-1.06-.45-1.78-.45-.88,0-1.62.27-2.22.82-.59.54-.89,1.23-.89,2.06,0,1.11.88,2.05,2.65,2.81l1.79.79c1.51.66,2.59,1.39,3.24,2.19.66.78,1,1.77,1,2.96,0,1.63-.57,3-1.72,4.1-1.16,1.11-2.57,1.66-4.23,1.66-1.48,0-2.72-.42-3.74-1.26-1.01-.83-1.69-2.02-2.04-3.56l2.03-.57c.51,2.29,1.78,3.44,3.82,3.44,1.04,0,1.92-.36,2.67-1.08.73-.71,1.09-1.58,1.09-2.61,0-.78-.23-1.43-.7-1.95-.46-.52-1.28-1.04-2.46-1.56l-1.7-.78c-.69-.3-1.27-.61-1.74-.94s-.86-.67-1.16-1.04c-.59-.71-.89-1.59-.89-2.63,0-1.38.49-2.53,1.48-3.46,1-.92,2.25-1.38,3.76-1.38,2.09,0,3.7.98,4.83,2.93Z"/>
        <path class="st0" d="M429.51,62.11v2.58c-1.76-1.65-3.65-2.47-5.67-2.47s-3.85.77-5.34,2.31c-1.49,1.51-2.23,3.34-2.23,5.5,0,2.32.86,4.22,2.58,5.7,1.5,1.3,3.16,1.95,5,1.95,2.01,0,3.9-.82,5.65-2.45v2.59c-1.79,1.21-3.67,1.81-5.64,1.81-2.66,0-4.94-.95-6.84-2.84s-2.85-4.15-2.85-6.79.95-4.97,2.86-6.88c1.93-1.91,4.25-2.86,6.94-2.86,1.92,0,3.77.62,5.53,1.84Z"/>
        <path class="st0" d="M443.55,62.54h-7.61v5.55h7.4v1.95h-7.4v7.31h7.61v1.95h-9.7v-18.72h9.7v1.95Z"/>
        <path class="st0" d="M447.88,79.3v-19.51l14.59,15.29v-14.5h2.1v19.56l-14.59-15.26v14.43h-2.1Z"/>
        <path class="st0" d="M474.51,62.54v16.77h-2.1v-16.77h-4.54v-1.95h11.18v1.95h-4.55Z"/>
        <path class="st0" d="M492.07,62.54h-7.61v5.55h7.4v1.95h-7.4v7.31h7.61v1.95h-9.7v-18.72h9.7v1.95Z"/>
        <path class="st0" d="M501.29,70.93l5.94,8.38h-2.55l-5.65-8.21h-.53v8.21h-2.1v-18.72h3.02c2.22,0,3.85.44,4.89,1.31,1.12.95,1.69,2.27,1.69,3.94,0,1.41-.43,2.58-1.3,3.52-.86.93-1.99,1.46-3.41,1.58ZM498.5,69.25h1.31c1.34,0,2.37-.29,3.07-.87.7-.58,1.06-1.43,1.06-2.54,0-2.2-1.39-3.3-4.18-3.3h-1.25v6.72Z"/>
      </g>
      <g>
        <path class="st0" d="M178.81,48.62v-8.82l-4.2,7.72-4.18-7.69v8.79l1.34.93v2.59h-6.69v-2.59l1.34-.93v-12.48l-1.34-.93v-2.61h5.82l3.74,6.89,3.86-6.89h5.72v2.61l-1.32.93v12.5l1.32.93v2.56h-6.72v-2.59l1.32-.93Z"/>
        <path class="st0" d="M194.42,52.14h-7.16v-2.59l1.39-.93v-12.46l-1.39-.93v-2.64h7.16v2.61l-1.37.93v12.48l1.37.93v2.59Z"/>
        <path class="st0" d="M210.08,35.53l.27.29v2.2h-4.4v-.9l-.54-.49h-3.03l-.51.49v2.78l.1.1h6.06l2.05,2.2.27.29v6.33l-3.01,3.32h-6.94l-2.69-3.05-.24-.27v-2.71h4.4v1.51l.56.68h2.93l.59-.68v-3.81l-.07-.1h-6.21l-2.2-2.64v-5.25l2.64-2.91.29-.32h6.96l2.71,2.93Z"/>
        <path class="st0" d="M226.01,35.53l.27.29v2.2h-4.4v-.9l-.54-.49h-3.03l-.51.49v2.78l.1.1h6.06l2.05,2.2.27.29v6.33l-3.01,3.32h-6.94l-2.69-3.05-.24-.27v-2.71h4.4v1.51l.56.68h2.93l.59-.68v-3.81l-.07-.1h-6.21l-2.2-2.64v-5.25l2.64-2.91.29-.32h6.96l2.71,2.93Z"/>
        <path class="st0" d="M236.5,52.14h-7.16v-2.59l1.39-.93v-12.46l-1.39-.93v-2.64h7.16v2.61l-1.37.93v12.48l1.37.93v2.59Z"/>
        <path class="st0" d="M252.16,35.53l.27.29v2.2h-4.4v-.9l-.54-.49h-3.03l-.51.49v2.78l.1.1h6.06l2.05,2.2.27.29v6.33l-3.01,3.32h-6.94l-2.69-3.05-.24-.27v-2.71h4.4v1.51l.56.68h2.93l.59-.68v-3.81l-.07-.1h-6.21l-2.2-2.64v-5.25l2.64-2.91.29-.32h6.96l2.71,2.93Z"/>
        <path class="st0" d="M268.09,35.53l.27.29v2.2h-4.4v-.9l-.54-.49h-3.03l-.51.49v2.78l.1.1h6.06l2.05,2.2.27.29v6.33l-3.01,3.32h-6.94l-2.69-3.05-.24-.27v-2.71h4.4v1.51l.56.68h2.93l.59-.68v-3.81l-.07-.1h-6.21l-2.2-2.64v-5.25l2.64-2.91.29-.32h6.96l2.71,2.93Z"/>
        <path class="st0" d="M278.57,52.14h-7.16v-2.59l1.39-.93v-12.46l-1.39-.93v-2.64h7.16v2.61l-1.37.93v12.48l1.37.93v2.59Z"/>
        <path class="st0" d="M295.43,35.6l.27.29v6.33l-2.72,2.88-.29.32h-5.29v3.2l1.47.93v2.59h-7.23v-2.59l1.39-.93v-12.46l-1.39-.93v-2.64h11.07l2.74,3ZM291.3,37.14l-.49-.51h-3.42v4.84h3.42l.49-.51v-3.81Z"/>
        <path class="st0" d="M312,35.6l.27.29v6.33l-2.72,2.88-.29.32h-5.29v3.2l1.47.93v2.59h-7.23v-2.59l1.39-.93v-12.46l-1.39-.93v-2.64h11.07l2.74,3ZM307.87,37.14l-.49-.51h-3.42v4.84h3.42l.49-.51v-3.81Z"/>
        <path class="st0" d="M321.92,52.14h-7.16v-2.59l1.39-.93v-12.46l-1.39-.93v-2.64h7.16v2.61l-1.37.93v12.48l1.37.93v2.59Z"/>
        <path class="st0" d="M347.97,35.53l.27.29v2.2h-4.4v-.9l-.54-.49h-3.03l-.51.49v2.78l.1.1h6.06l2.05,2.2.27.29v6.33l-3.01,3.32h-6.94l-2.69-3.05-.24-.27v-2.71h4.4v1.51l.56.68h2.93l.59-.68v-3.81l-.07-.1h-6.21l-2.2-2.64v-5.25l2.64-2.91.29-.32h6.96l2.71,2.93Z"/>
        <path class="st0" d="M350.43,32.6h15.66v6.18h-3.62v-2.15h-2.03v11.99l1.37.93v2.59h-7.13v-2.59l1.37-.93v-11.99h-2v2.15h-3.62v-6.18Z"/>
        <path class="st0" d="M381.37,49.57v2.56h-6.82v-2.61l1.34-.83-.81-2.66h-4.54l-.86,2.66,1.34.83v2.61h-6.5v-2.54l1.27-1.03,4.72-15.26.22-.71h4.52l4.72,15.95,1.39,1.03ZM374.01,42.39l-1.15-3.88-1.2,3.88h2.35Z"/>
        <path class="st0" d="M379.71,32.6h15.66v6.18h-3.62v-2.15h-2.03v11.99l1.37.93v2.59h-7.13v-2.59l1.37-.93v-11.99h-2v2.15h-3.62v-6.18Z"/>
        <path class="st0" d="M397.57,32.6h14.25v6.11h-4.4v-2.08h-4.06v3.74h4.72v3.69h-4.72v4.1h4.06v-1.44h4.4v5.42h-14.25v-2.59l1.39-.93v-12.46l-1.39-.93v-2.64Z"/>
        <path class="st0" d="M434.15,32.6h6.94v2.66l-1.59.93v12.72l-2.69,2.91-.29.32h-6.89l-2.98-3.22v-12.75l-1.39-.93v-2.64h6.62v2.47l-.83.93v11.65l.46.51h3.04l.51-.54v-11.6l-.9-.93v-2.49Z"/>
        <path class="st0" d="M450.71,49.52v2.61h-6.57v-2.61l1.39-.93v-12.43l-1.39-.93v-2.64h5.94l5.69,10.84v-7.33l-1.22-.93v-2.59h6.43v2.61l-1.34.93v16h-4.06l-6.23-11.87v8.33l1.37.93Z"/>
        <path class="st0" d="M471.19,52.14h-7.16v-2.59l1.39-.93v-12.46l-1.39-.93v-2.64h7.16v2.61l-1.37.93v12.48l1.37.93v2.59Z"/>
        <path class="st0" d="M483.33,32.6h7.38v2.71l-2,1-4.74,15.83h-3.79l-4.91-15.85-1.76-1.03v-2.66h7.13v2.64l-1.22.81,2.61,8.55,2.57-8.55-1.27-.81v-2.64Z"/>
        <path class="st0" d="M492.83,32.6h14.25v6.11h-4.4v-2.08h-4.06v3.74h4.72v3.69h-4.72v4.1h4.06v-1.44h4.4v5.42h-14.25v-2.59l1.39-.93v-12.46l-1.39-.93v-2.64Z"/>
        <path class="st0" d="M525.7,49.62v2.52h-6.52v-2.56l.88-.73-1.95-4.49h-2.17v4.35l.95.93v2.52h-6.74v-2.61l1.34-.93v-12.46l-1.34-.93v-2.61h11.04l3.03,3.22v5.37l-2,2.1,2.35,5.23,1.15,1.1ZM519.81,37.14l-.59-.51h-3.3v3.76h3.25l.63-.71v-2.54Z"/>
        <path class="st0" d="M540.85,35.53l.27.29v2.2h-4.4v-.9l-.54-.49h-3.03l-.51.49v2.78l.1.1h6.06l2.05,2.2.27.29v6.33l-3.01,3.32h-6.94l-2.69-3.05-.24-.27v-2.71h4.4v1.51l.56.68h2.93l.59-.68v-3.81l-.07-.1h-6.21l-2.2-2.64v-5.25l2.64-2.91.29-.32h6.96l2.71,2.93Z"/>
        <path class="st0" d="M551.33,52.14h-7.16v-2.59l1.39-.93v-12.46l-1.39-.93v-2.64h7.16v2.61l-1.37.93v12.48l1.37.93v2.59Z"/>
        <path class="st0" d="M553.53,32.6h15.66v6.18h-3.62v-2.15h-2.03v11.99l1.37.93v2.59h-7.13v-2.59l1.37-.93v-11.99h-2v2.15h-3.62v-6.18Z"/>
        <path class="st0" d="M580.43,32.6h6.38v2.54l-1.27,1.1-4.28,8.45v3.93l1.39.93v2.59h-7.11v-2.59l1.34-.93v-3.93l-4.25-8.45-1.25-1.1v-2.54h6.33v2.54l-.78.71,2.15,4.23,2.12-4.23-.78-.71v-2.54Z"/>
      </g>
      <polyline class="st0" points="144.44 17.72 144.44 98.63 147.11 98.63 147.11 17.72"/>
    </g>
    <path class="st0" d="M593.78,45.26v1.13h-2.18v5.69h-1.35v-5.69h-2.18v-1.13h5.72ZM601.15,52.08l-.25-4.01c-.02-.53-.02-1.18-.05-1.91h-.08c-.18.6-.38,1.4-.58,2.03l-1.23,3.79h-1.4l-1.23-3.89c-.12-.53-.32-1.33-.48-1.93h-.08c0,.63-.02,1.28-.05,1.91l-.25,4.01h-1.3l.5-6.82h2.03l1.18,3.34c.15.53.28,1.03.45,1.73h.02c.18-.63.33-1.2.48-1.7l1.18-3.36h1.96l.52,6.82h-1.35Z"/>
  </g>
</svg>