<?xml version="1.0" encoding="utf-8"?>
<!-- Generator: Adobe Illustrator 23.1.1, SVG Export Plug-In . SVG Version: 6.00 Build 0)  -->
<svg version="1.1" id="Line__x26__Text" xmlns="http://www.w3.org/2000/svg" xmlns:xlink="http://www.w3.org/1999/xlink" x="0px"
	 y="0px" viewBox="0 0 617 116" style="enable-background:new 0 0 617 116;" xml:space="preserve">
<style type="text/css">
	.st0{fill:#5D1725;}
	.st1{fill:#FFFFFF;}
</style>
<g>
	<path class="st0" d="M108.7,41.7c6.3,2.4,12.2,5.4,17.7,9l-4,8.7l4.8,15.5c-3.6-2.4-7.4-4.5-10.7-6.2l0,8.5c-2.5-1.5-5.1-2.8-7.9-4
		v3.6l3.8,5.7v7.9H87V67.1c-0.9-0.1-1.8-0.2-2.8-0.3l-9.9,15.6l-9.9-15.6c-0.9,0.1-1.9,0.2-2.8,0.3v23.3H36.3v-7.9l3.8-5.7v-3.6
		c-2.8,1.2-5.4,2.6-7.9,4v-8.5c-3.3,1.7-7,3.8-10.7,6.2l4.8-15.5l-4-8.7c5.4-3.6,11.4-6.6,17.7-9v-1.9l-3.8-6v-7.6h23.8l9.2,14.3
		c1.7-0.1,3.4-0.2,5-0.2c1.7,0,3.4,0.1,5,0.2l9.2-14.3h23.8v7.6l-3.8,6V41.7z"/>
	<path class="st1" d="M40,44.5c-5.2,2-10,4.4-14.4,7.2l3.5,7.6L26,69.2c2-1.2,4.1-2.3,6.2-3.3V51.2c2.4-1.2,5.9-3,7.9-3.8V44.5z"/>
	<path class="st1" d="M74.4,63.5c13.3,0,27.4,3.4,39.5,9.4V52.8c-12.1-6.3-26.2-9.7-39.5-9.7c-13.3,0-27.4,3.5-39.5,9.7V73
		C47,66.9,61.1,63.5,74.4,63.5z"/>
	<path class="st1" d="M108.7,44.5c5.2,2,10,4.4,14.4,7.2l-3.5,7.6l3.1,9.9c-2-1.2-4.1-2.3-6.2-3.3V51.2c-2.4-1.2-5.9-3-7.9-3.8V44.5
		z"/>
	<g>
		<path class="st0" d="M66.9,50.4c-0.8,0.1-1.6,0.2-2.5,0.2v-1.7l-2.7,0.4v9.6c0,0,1.2-0.2,1.2-0.2v2.5c-1.9,0.2-3.8,0.6-5.6,0.9
			v-2.5l1.2-0.2c0,0,0-9.6,0-9.6l-2.6,0.5V52c-0.8,0.2-1.6,0.4-2.4,0.6v-4.2c4.4-1.1,8.9-1.9,13.3-2.2V50.4z M51.6,52.5
			c-1,0.3-2.1,0.6-3.1,0.9v-1.1l-4.4,1.5v3.3c0,0,4.1-1.5,5.7-2l1.8,1.2v4.7L49,64.3c-1.9,0.6-3.8,1.3-5.7,2
			c-0.7-0.5-1.5-0.9-2.2-1.4v-1.8c1-0.4,2-0.8,3-1.2v1.7l0.4-0.2c1.2-0.5,4-1.4,4-1.4v-4.2c0,0-4.1,1.4-5.8,2.1l-1.6-1.1V55l2.4-3.4
			c1.9-0.7,3.8-1.4,5.7-2c0.8,0.5,1.6,1,2.3,1.6V52.5z M93.1,52.3c-0.8-0.2-1.6-0.4-2.4-0.5V50L88,49.5v9.6c0,0,1.2,0.2,1.2,0.2v2.5
			c-1.9-0.3-3.8-0.6-5.6-0.8v-2.5l1.2,0.1c0,0,0-9.6,0-9.6l-2.7-0.3v1.7c-0.8-0.1-1.6-0.1-2.5-0.2v-4.2c4.5,0.3,9,1,13.4,2V52.3z
			 M99.6,52.4v3.6c0,0,2.8,0.9,4.1,1.4v2.2c-1.2-0.5-4.1-1.4-4.1-1.4V62l4.4,1.5v-1.1c1,0.4,2,0.8,3,1.2v3.6
			c-3.8-1.6-7.7-2.9-11.7-4v-2.5l1.2,0.3c0,0,0-9.6,0-9.6c0,0-1.2-0.3-1.2-0.3v-2.5c4,1,7.9,2.4,11.7,4V56c-1-0.4-2-0.8-3-1.2v-0.9
			C104,53.9,99.6,52.4,99.6,52.4z M73.2,49c0,0-1.6,4.6-1.6,4.6l3.2,0L73.2,49z M80.5,60.8c-1.8-0.1-3.6-0.2-5.4-0.2V58l1.2,0
			c0,0-0.8-2.3-0.8-2.3l-4.8,0.1l-0.8,2.3c0,0,1.2,0,1.2,0v2.5c-1.7,0.1-3.4,0.2-5.1,0.3v-2.5l1.2-0.1c0,0,4.4-12.4,4.4-12.4
			c1.1,0,2.3,0,3.5,0l4.2,12.3c0,0,0.9,0.1,1.3,0.1V60.8z"/>
	</g>
</g>
<g>
	<g>
		<polyline class="st0" points="144.4,17.7 144.4,98.6 147.1,98.6 147.1,17.7 		"/>
	</g>
	<g>
		<g>
			<path class="st0" d="M178.8,38.1v-8.8l-4.2,7.7l-4.2-7.7v8.8l1.3,0.9v2.6h-6.7V39l1.3-0.9V25.6l-1.3-0.9v-2.6h5.8l3.7,6.9
				l3.9-6.9h5.7v2.6l-1.3,0.9v12.5l1.3,0.9v2.6h-6.7V39L178.8,38.1z"/>
			<path class="st0" d="M194.4,41.6h-7.2V39l1.4-0.9V25.7l-1.4-0.9v-2.6h7.2v2.6l-1.4,0.9v12.5l1.4,0.9V41.6z"/>
			<path class="st0" d="M210.1,25l0.3,0.3v2.2H206v-0.9l-0.5-0.5h-3l-0.5,0.5v2.8l0.1,0.1h6.1l2.1,2.2l0.3,0.3v6.3l-3,3.3h-6.9
				l-2.7-3.1l-0.2-0.3v-2.7h4.4v1.5l0.6,0.7h2.9l0.6-0.7v-3.8l-0.1-0.1h-6.2l-2.2-2.6v-5.3l2.6-2.9l0.3-0.3h7L210.1,25z"/>
			<path class="st0" d="M226,25l0.3,0.3v2.2h-4.4v-0.9l-0.5-0.5h-3l-0.5,0.5v2.8l0.1,0.1h6.1l2.1,2.2l0.3,0.3v6.3l-3,3.3h-6.9
				l-2.7-3.1l-0.2-0.3v-2.7h4.4v1.5l0.6,0.7h2.9l0.6-0.7v-3.8l-0.1-0.1h-6.2l-2.2-2.6v-5.3l2.6-2.9l0.3-0.3h7L226,25z"/>
			<path class="st0" d="M236.5,41.6h-7.2V39l1.4-0.9V25.7l-1.4-0.9v-2.6h7.2v2.6l-1.4,0.9v12.5l1.4,0.9V41.6z"/>
			<path class="st0" d="M252.2,25l0.3,0.3v2.2H248v-0.9l-0.5-0.5h-3l-0.5,0.5v2.8l0.1,0.1h6.1l2.1,2.2l0.3,0.3v6.3l-3,3.3h-6.9
				l-2.7-3.1l-0.2-0.3v-2.7h4.4v1.5l0.6,0.7h2.9l0.6-0.7v-3.8l-0.1-0.1h-6.2l-2.2-2.6v-5.3l2.6-2.9l0.3-0.3h7L252.2,25z"/>
			<path class="st0" d="M268.1,25l0.3,0.3v2.2H264v-0.9l-0.5-0.5h-3l-0.5,0.5v2.8l0.1,0.1h6.1l2.1,2.2l0.3,0.3v6.3l-3,3.3h-6.9
				l-2.7-3.1l-0.2-0.3v-2.7h4.4v1.5l0.6,0.7h2.9l0.6-0.7v-3.8l-0.1-0.1h-6.2l-2.2-2.6v-5.3l2.6-2.9l0.3-0.3h7L268.1,25z"/>
			<path class="st0" d="M278.6,41.6h-7.2V39l1.4-0.9V25.7l-1.4-0.9v-2.6h7.2v2.6l-1.4,0.9v12.5l1.4,0.9V41.6z"/>
			<path class="st0" d="M295.4,25.1l0.3,0.3v6.3l-2.7,2.9l-0.3,0.3h-5.3v3.2l1.5,0.9v2.6h-7.2V39l1.4-0.9V25.7l-1.4-0.9v-2.6h11.1
				L295.4,25.1z M291.3,26.6l-0.5-0.5h-3.4V31h3.4l0.5-0.5V26.6z"/>
			<path class="st0" d="M312,25.1l0.3,0.3v6.3l-2.7,2.9l-0.3,0.3H304v3.2l1.5,0.9v2.6h-7.2V39l1.4-0.9V25.7l-1.4-0.9v-2.6h11.1
				L312,25.1z M307.9,26.6l-0.5-0.5H304V31h3.4l0.5-0.5V26.6z"/>
			<path class="st0" d="M321.9,41.6h-7.2V39l1.4-0.9V25.7l-1.4-0.9v-2.6h7.2v2.6l-1.4,0.9v12.5l1.4,0.9V41.6z"/>
			<path class="st0" d="M348,25l0.3,0.3v2.2h-4.4v-0.9l-0.5-0.5h-3l-0.5,0.5v2.8l0.1,0.1h6.1l2.1,2.2l0.3,0.3v6.3l-3,3.3h-6.9
				l-2.7-3.1l-0.2-0.3v-2.7h4.4v1.5l0.6,0.7h2.9l0.6-0.7v-3.8l-0.1-0.1h-6.2l-2.2-2.6v-5.3l2.6-2.9l0.3-0.3h7L348,25z"/>
			<path class="st0" d="M350.4,22.1h15.7v6.2h-3.6v-2.1h-2v12l1.4,0.9v2.6h-7.1V39l1.4-0.9v-12h-2v2.1h-3.6V22.1z"/>
			<path class="st0" d="M381.4,39.1v2.6h-6.8V39l1.3-0.8l-0.8-2.7h-4.5l-0.9,2.7L371,39v2.6h-6.5v-2.5l1.3-1l4.7-15.3l0.2-0.7h4.5
				L380,38L381.4,39.1z M374,31.9l-1.1-3.9l-1.2,3.9H374z"/>
			<path class="st0" d="M379.7,22.1h15.7v6.2h-3.6v-2.1h-2v12l1.4,0.9v2.6H384V39l1.4-0.9v-12h-2v2.1h-3.6V22.1z"/>
			<path class="st0" d="M397.6,22.1h14.2v6.1h-4.4v-2.1h-4.1v3.7h4.7v3.7h-4.7v4.1h4.1v-1.4h4.4v5.4h-14.2V39l1.4-0.9V25.7l-1.4-0.9
				V22.1z"/>
			<path class="st0" d="M434.1,22.1h6.9v2.7l-1.6,0.9v12.7l-2.7,2.9l-0.3,0.3h-6.9l-3-3.2V25.7l-1.4-0.9v-2.6h6.6v2.5l-0.8,0.9v11.6
				l0.5,0.5h3l0.5-0.5V25.5l-0.9-0.9V22.1z"/>
			<path class="st0" d="M450.7,39v2.6h-6.6V39l1.4-0.9V25.7l-1.4-0.9v-2.6h5.9l5.7,10.8v-7.3l-1.2-0.9v-2.6h6.4v2.6l-1.3,0.9v16
				h-4.1l-6.2-11.9v8.3L450.7,39z"/>
			<path class="st0" d="M471.2,41.6H464V39l1.4-0.9V25.7l-1.4-0.9v-2.6h7.2v2.6l-1.4,0.9v12.5l1.4,0.9V41.6z"/>
			<path class="st0" d="M483.3,22.1h7.4v2.7l-2,1L484,41.6h-3.8l-4.9-15.9l-1.8-1v-2.7h7.1v2.6l-1.2,0.8l2.6,8.5l2.6-8.5l-1.3-0.8
				V22.1z"/>
			<path class="st0" d="M492.8,22.1h14.2v6.1h-4.4v-2.1h-4.1v3.7h4.7v3.7h-4.7v4.1h4.1v-1.4h4.4v5.4h-14.2V39l1.4-0.9V25.7l-1.4-0.9
				V22.1z"/>
			<path class="st0" d="M525.7,39.1v2.5h-6.5v-2.6l0.9-0.7l-2-4.5h-2.2v4.3l1,0.9v2.5h-6.7V39l1.3-0.9V25.6l-1.3-0.9v-2.6h11l3,3.2
				v5.4l-2,2.1l2.3,5.2L525.7,39.1z M519.8,26.6l-0.6-0.5h-3.3v3.8h3.2l0.6-0.7V26.6z"/>
			<path class="st0" d="M540.8,25l0.3,0.3v2.2h-4.4v-0.9l-0.5-0.5h-3l-0.5,0.5v2.8l0.1,0.1h6.1l2.1,2.2l0.3,0.3v6.3l-3,3.3h-6.9
				l-2.7-3.1l-0.2-0.3v-2.7h4.4v1.5l0.6,0.7h2.9l0.6-0.7v-3.8l-0.1-0.1h-6.2l-2.2-2.6v-5.3l2.6-2.9l0.3-0.3h7L540.8,25z"/>
			<path class="st0" d="M551.3,41.6h-7.2V39l1.4-0.9V25.7l-1.4-0.9v-2.6h7.2v2.6l-1.4,0.9v12.5l1.4,0.9V41.6z"/>
			<path class="st0" d="M553.5,22.1h15.7v6.2h-3.6v-2.1h-2v12l1.4,0.9v2.6h-7.1V39l1.4-0.9v-12h-2v2.1h-3.6V22.1z"/>
			<path class="st0" d="M580.4,22.1h6.4v2.5l-1.3,1.1l-4.3,8.5v3.9l1.4,0.9v2.6h-7.1V39l1.3-0.9v-3.9l-4.3-8.5l-1.2-1.1v-2.5h6.3
				v2.5l-0.8,0.7l2.2,4.2l2.1-4.2l-0.8-0.7V22.1z"/>
		</g>
	</g>
	<g>
		<path class="st0" d="M169.9,52v16.8h-2.1V52h-4.5v-2h11.2v2H169.9z"/>
		<path class="st0" d="M176.8,67.7c0-0.4,0.1-0.7,0.4-1c0.3-0.3,0.6-0.4,1-0.4c0.2,0,0.4,0,0.5,0.1c0.2,0.1,0.3,0.2,0.4,0.3
			c0.1,0.1,0.2,0.3,0.3,0.4c0.1,0.2,0.1,0.4,0.1,0.5c0,0.4-0.1,0.7-0.4,1c-0.3,0.3-0.6,0.4-1,0.4c-0.2,0-0.4,0-0.5-0.1
			c-0.2-0.1-0.3-0.2-0.4-0.3c-0.1-0.1-0.2-0.3-0.3-0.4C176.8,68.1,176.8,67.9,176.8,67.7z"/>
		<path class="st0" d="M187,58.1l8-8h2.8l-8.8,8.7l9.1,10h-2.9l-7.7-8.6l-0.5,0.5v8.1h-2.1V50.1h2.1V58.1z"/>
		<path class="st0" d="M201.2,67.7c0-0.4,0.1-0.7,0.4-1c0.3-0.3,0.6-0.4,1-0.4c0.2,0,0.4,0,0.5,0.1c0.2,0.1,0.3,0.2,0.4,0.3
			c0.1,0.1,0.2,0.3,0.3,0.4c0.1,0.2,0.1,0.4,0.1,0.5c0,0.4-0.1,0.7-0.4,1c-0.3,0.3-0.6,0.4-1,0.4c-0.2,0-0.4,0-0.5-0.1
			c-0.2-0.1-0.3-0.2-0.4-0.3c-0.1-0.1-0.2-0.3-0.3-0.4C201.3,68.1,201.2,67.9,201.2,67.7z"/>
		<path class="st0" d="M216.7,68.8l3.1-19.8l7.2,15.8l7.4-15.8l2.9,19.8h-2.1l-1.7-13L227,69.6l-6.3-13.8l-1.8,13H216.7z"/>
		<path class="st0" d="M252.3,63.5h-8l-2.3,5.3h-2.3l8.6-19.6l8.4,19.6h-2.3L252.3,63.5z M251.5,61.6l-3.1-7.5l-3.2,7.5H251.5z"/>
		<path class="st0" d="M264.7,60.4l5.9,8.4h-2.5l-5.7-8.2h-0.5v8.2h-2.1V50.1h3c2.2,0,3.9,0.4,4.9,1.3c1.1,1,1.7,2.3,1.7,3.9
			c0,1.4-0.4,2.6-1.3,3.5C267.3,59.8,266.1,60.3,264.7,60.4z M261.9,58.8h1.3c1.3,0,2.4-0.3,3.1-0.9c0.7-0.6,1.1-1.4,1.1-2.5
			c0-2.2-1.4-3.3-4.2-3.3h-1.2V58.8z"/>
		<path class="st0" d="M278.7,52v16.8h-2.1V52H272v-2h11.2v2H278.7z"/>
		<path class="st0" d="M288.5,50.1v18.7h-2.1V50.1H288.5z"/>
		<path class="st0" d="M293.8,68.8V49.3l14.6,15.3V50.1h2.1v19.6l-14.6-15.3v14.4H293.8z"/>
		<path class="st0" d="M338.1,51.6v2.6c-1.8-1.6-3.7-2.5-5.7-2.5c-2.1,0-3.8,0.8-5.3,2.3c-1.5,1.5-2.2,3.3-2.2,5.5
			c0,2.3,0.9,4.2,2.6,5.7c1.5,1.3,3.2,2,5,2c2,0,3.9-0.8,5.7-2.4v2.6c-1.8,1.2-3.7,1.8-5.6,1.8c-2.7,0-4.9-0.9-6.8-2.8
			c-1.9-1.9-2.9-4.2-2.9-6.8c0-2.7,1-5,2.9-6.9c1.9-1.9,4.2-2.9,6.9-2.9C334.5,49.8,336.3,50.4,338.1,51.6z"/>
		<path class="st0" d="M352.1,52h-7.6v5.6h7.4v2h-7.4v7.3h7.6v2h-9.7V50.1h9.7V52z"/>
		<path class="st0" d="M356.3,68.8V49.3l14.6,15.3V50.1h2.1v19.6l-14.6-15.3v14.4H356.3z"/>
		<path class="st0" d="M382.8,52v16.8h-2.1V52h-4.5v-2h11.2v2H382.8z"/>
		<path class="st0" d="M400.3,52h-7.6v5.6h7.4v2h-7.4v7.3h7.6v2h-9.7V50.1h9.7V52z"/>
		<path class="st0" d="M409.4,60.4l5.9,8.4h-2.5l-5.7-8.2h-0.5v8.2h-2.1V50.1h3c2.2,0,3.9,0.4,4.9,1.3c1.1,1,1.7,2.3,1.7,3.9
			c0,1.4-0.4,2.6-1.3,3.5C411.9,59.8,410.8,60.3,409.4,60.4z M406.6,58.8h1.3c1.3,0,2.4-0.3,3.1-0.9c0.7-0.6,1.1-1.4,1.1-2.5
			c0-2.2-1.4-3.3-4.2-3.3h-1.2V58.8z"/>
		<path class="st0" d="M435.6,52h-6.4v5.6h6.2v2h-6.2v9.3h-2.1V50.1h8.5V52z"/>
		<path class="st0" d="M438.6,59.3c0-2.6,1-4.8,2.9-6.7c1.9-1.9,4.2-2.8,6.9-2.8c2.7,0,5,1,6.9,2.9c1.9,1.9,2.9,4.2,2.9,6.8
			c0,2.7-1,5-2.9,6.9c-1.9,1.9-4.2,2.8-6.9,2.8c-2.4,0-4.5-0.8-6.5-2.5C439.7,64.7,438.6,62.3,438.6,59.3z M440.7,59.3
			c0,2.3,0.8,4.2,2.4,5.7c1.5,1.4,3.3,2.1,5.2,2.1c2.1,0,4-0.8,5.5-2.3c1.5-1.5,2.2-3.3,2.2-5.5c0-2.2-0.7-4-2.2-5.5
			c-1.5-1.5-3.3-2.3-5.4-2.3c-2.1,0-3.9,0.7-5.4,2.2C441.5,55.5,440.7,57.3,440.7,59.3z"/>
		<path class="st0" d="M467.2,60.4l5.9,8.4h-2.5l-5.7-8.2h-0.5v8.2h-2.1V50.1h3c2.2,0,3.9,0.4,4.9,1.3c1.1,1,1.7,2.3,1.7,3.9
			c0,1.4-0.4,2.6-1.3,3.5C469.8,59.8,468.7,60.3,467.2,60.4z M464.4,58.8h1.3c1.3,0,2.4-0.3,3.1-0.9c0.7-0.6,1.1-1.4,1.1-2.5
			c0-2.2-1.4-3.3-4.2-3.3h-1.2V58.8z"/>
		<path class="st0" d="M169.9,78.3v16.8h-2.1V78.3h-4.5v-2h11.2v2H169.9z"/>
		<path class="st0" d="M187.3,78.3h-7.6v5.6h7.4v2h-7.4v7.3h7.6v2h-9.7V76.4h9.7V78.3z"/>
		<path class="st0" d="M205.9,77.9v2.6c-1.8-1.6-3.7-2.5-5.7-2.5c-2.1,0-3.8,0.8-5.3,2.3c-1.5,1.5-2.2,3.3-2.2,5.5
			c0,2.3,0.9,4.2,2.6,5.7c1.5,1.3,3.2,2,5,2c2,0,3.9-0.8,5.7-2.4v2.6c-1.8,1.2-3.7,1.8-5.6,1.8c-2.7,0-4.9-0.9-6.8-2.8
			c-1.9-1.9-2.9-4.2-2.9-6.8c0-2.7,1-5,2.9-6.9c1.9-1.9,4.2-2.9,6.9-2.9C202.3,76.1,204.1,76.7,205.9,77.9z"/>
		<path class="st0" d="M212.6,84h9.6v-7.6h2.1v18.7h-2.1V86h-9.6v9.2h-2.1V76.4h2.1V84z"/>
		<path class="st0" d="M229.5,95.1V75.6l14.6,15.3V76.4h2.1v19.6l-14.6-15.3v14.4H229.5z"/>
		<path class="st0" d="M250.6,85.6c0-2.6,1-4.8,2.9-6.7c1.9-1.9,4.2-2.8,6.9-2.8c2.7,0,5,1,6.9,2.9c1.9,1.9,2.9,4.2,2.9,6.8
			c0,2.7-1,5-2.9,6.9c-1.9,1.9-4.2,2.8-6.9,2.8c-2.4,0-4.5-0.8-6.5-2.5C251.7,91,250.6,88.6,250.6,85.6z M252.7,85.6
			c0,2.3,0.8,4.2,2.4,5.7c1.5,1.4,3.3,2.1,5.2,2.1c2.1,0,4-0.8,5.5-2.3c1.5-1.5,2.2-3.3,2.2-5.5c0-2.2-0.7-4-2.2-5.5
			c-1.5-1.5-3.3-2.3-5.4-2.3c-2.1,0-3.9,0.7-5.4,2.2C253.4,81.8,252.7,83.6,252.7,85.6z"/>
		<path class="st0" d="M276.4,76.4v16.8h5.2v2h-7.3V76.4H276.4z"/>
		<path class="st0" d="M282.7,85.6c0-2.6,1-4.8,2.9-6.7c1.9-1.9,4.2-2.8,6.9-2.8c2.7,0,5,1,6.9,2.9c1.9,1.9,2.9,4.2,2.9,6.8
			c0,2.7-1,5-2.9,6.9c-1.9,1.9-4.2,2.8-6.9,2.8c-2.4,0-4.5-0.8-6.5-2.5C283.8,91,282.7,88.6,282.7,85.6z M284.8,85.6
			c0,2.3,0.8,4.2,2.4,5.7c1.5,1.4,3.3,2.1,5.2,2.1c2.1,0,4-0.8,5.5-2.3c1.5-1.5,2.2-3.3,2.2-5.5c0-2.2-0.7-4-2.2-5.5
			c-1.5-1.5-3.3-2.3-5.4-2.3c-2.1,0-3.9,0.7-5.4,2.2C285.6,81.8,284.8,83.6,284.8,85.6z"/>
		<path class="st0" d="M316.1,85.7h7.8v0.5c0,2-0.3,3.5-1,4.7c-0.8,1.4-1.9,2.5-3.3,3.3c-1.4,0.8-3,1.2-4.6,1.2
			c-2.6,0-4.9-0.9-6.8-2.8c-1.9-1.9-2.8-4.2-2.8-6.8c0-2.7,1-5,2.9-6.9c1.9-1.9,4.2-2.8,6.9-2.8c1.6,0,3,0.3,4.2,1
			c0.6,0.3,1.2,0.7,1.8,1.2c0.6,0.5,1.2,1.1,1.8,1.9l-1.5,1.4c-0.9-1.2-1.9-2.1-2.9-2.7c-1-0.6-2.2-0.8-3.4-0.8
			c-2.1,0-3.9,0.8-5.4,2.3c-1.5,1.5-2.2,3.4-2.2,5.5c0,2.2,0.8,4.1,2.4,5.6c1.5,1.4,3.2,2.1,5.1,2.1c1,0,2-0.2,3-0.7
			c1-0.5,1.8-1.1,2.4-1.9c0.7-0.9,1.1-1.9,1.1-3.2h-5.6V85.7z"/>
		<path class="st0" d="M331.2,87.1l-6.1-10.7h2.4l4.8,8.4l4.8-8.4h2.4l-6.2,10.7v8h-2.1V87.1z"/>
		<path class="st0" d="M360.9,89.8h-8l-2.3,5.3h-2.3l8.6-19.6l8.4,19.6h-2.3L360.9,89.8z M360.1,87.9l-3.1-7.5l-3.2,7.5H360.1z"/>
		<path class="st0" d="M368.4,95.1V75.6L383,90.9V76.4h2.1v19.6l-14.6-15.3v14.4H368.4z"/>
		<path class="st0" d="M390.4,95.1V76.4h3.8c1.7,0,3.1,0.2,4.3,0.7c1.2,0.4,2.3,1.1,3.2,2.1c1.7,1.8,2.6,4,2.6,6.6
			c0,2.7-0.9,4.9-2.7,6.6c-1,1-2.1,1.7-3.2,2.1c-1.1,0.4-2.6,0.6-4.3,0.6H390.4z M392.5,93.2h1.8c2.5,0,4.4-0.7,5.8-2.2
			c1.4-1.4,2.1-3.1,2.1-5.2c0-2.1-0.7-3.9-2.1-5.3c-1.4-1.4-3.3-2.2-5.9-2.2h-1.8V93.2z"/>
		<path class="st0" d="M416.6,95.1V76.4h3.8c1.7,0,3.1,0.2,4.3,0.7c1.2,0.4,2.3,1.1,3.2,2.1c1.7,1.8,2.6,4,2.6,6.6
			c0,2.7-0.9,4.9-2.7,6.6c-1,1-2.1,1.7-3.2,2.1c-1.1,0.4-2.6,0.6-4.3,0.6H416.6z M418.7,93.2h1.8c2.5,0,4.4-0.7,5.8-2.2
			c1.4-1.4,2.1-3.1,2.1-5.2c0-2.1-0.7-3.9-2.1-5.3c-1.4-1.4-3.3-2.2-5.9-2.2h-1.8V93.2z"/>
		<path class="st0" d="M436.9,76.4v18.7h-2.1V76.4H436.9z"/>
		<path class="st0" d="M452.2,79l-1.7,1.1c-0.5-0.8-0.9-1.3-1.4-1.6c-0.5-0.3-1.1-0.4-1.8-0.4c-0.9,0-1.6,0.3-2.2,0.8
			c-0.6,0.5-0.9,1.2-0.9,2.1c0,1.1,0.9,2,2.6,2.8l1.8,0.8c1.5,0.7,2.6,1.4,3.2,2.2c0.7,0.8,1,1.8,1,3c0,1.6-0.6,3-1.7,4.1
			c-1.2,1.1-2.6,1.7-4.2,1.7c-1.5,0-2.7-0.4-3.7-1.3c-1-0.8-1.7-2-2-3.6l2-0.6c0.5,2.3,1.8,3.4,3.8,3.4c1,0,1.9-0.4,2.7-1.1
			c0.7-0.7,1.1-1.6,1.1-2.6c0-0.8-0.2-1.4-0.7-2c-0.5-0.5-1.3-1-2.5-1.6l-1.7-0.8c-0.7-0.3-1.3-0.6-1.7-0.9c-0.5-0.3-0.9-0.7-1.2-1
			c-0.6-0.7-0.9-1.6-0.9-2.6c0-1.4,0.5-2.5,1.5-3.5c1-0.9,2.3-1.4,3.8-1.4C449.4,76.1,451.1,77,452.2,79z"/>
		<path class="st0" d="M467.2,89.8h-8l-2.3,5.3h-2.3l8.6-19.6l8.4,19.6h-2.3L467.2,89.8z M466.3,87.9l-3.1-7.5l-3.2,7.5H466.3z"/>
		<path class="st0" d="M474.7,95.1V76.4h3.4c2.1,0,3.6,0.5,4.6,1.5c0.9,1,1.4,2.2,1.4,3.6c0,1.5-0.6,2.7-1.8,3.6
			c1.1,0.3,2,0.9,2.6,1.7c0.6,0.8,0.9,1.8,0.9,3c0,1.5-0.5,2.7-1.6,3.7c-0.6,0.6-1.3,1-2,1.2c-0.7,0.2-1.7,0.4-2.8,0.4H474.7z
			 M476.8,84.6h1.6c0.8,0,1.4-0.1,1.8-0.2c0.4-0.1,0.8-0.4,1.1-0.7c0.5-0.6,0.8-1.3,0.8-2.2c0-2.1-1.2-3.2-3.6-3.2h-1.6V84.6z
			 M476.8,93.2h2.4c0.9,0,1.6-0.1,2.1-0.2c0.5-0.1,0.9-0.4,1.3-0.8c0.7-0.6,1-1.4,1-2.4c0-1.1-0.4-1.9-1.3-2.6
			c-0.7-0.5-1.9-0.8-3.5-0.8h-2.1V93.2z"/>
		<path class="st0" d="M492.1,76.4v18.7H490V76.4H492.1z"/>
		<path class="st0" d="M499.4,76.4v16.8h5.2v2h-7.3V76.4H499.4z"/>
		<path class="st0" d="M509.9,76.4v18.7h-2.1V76.4H509.9z"/>
		<path class="st0" d="M519.7,78.3v16.8h-2.1V78.3h-4.5v-2h11.2v2H519.7z"/>
		<path class="st0" d="M532.5,87.1l-6.1-10.7h2.4l4.8,8.4l4.8-8.4h2.4l-6.2,10.7v8h-2.1V87.1z"/>
	</g>
</g>
<g>
	<path class="st0" d="M593.6,34.7v1.1h-2.2v5.7h-1.4v-5.7h-2.2v-1.1H593.6z M601,41.6l-0.3-4c0-0.5,0-1.2,0-1.9h-0.1
		c-0.2,0.6-0.4,1.4-0.6,2l-1.2,3.8h-1.4l-1.2-3.9c-0.1-0.5-0.3-1.3-0.5-1.9h-0.1c0,0.6,0,1.3-0.1,1.9l-0.2,4H594l0.5-6.8h2l1.2,3.3
		c0.1,0.5,0.3,1,0.5,1.7h0c0.2-0.6,0.3-1.2,0.5-1.7l1.2-3.4h2l0.5,6.8H601z"/>
</g>
</svg>
