<?xml version="1.0" standalone="no"?>
<!DOCTYPE svg PUBLIC "-//W3C//DTD SVG 20010904//EN"
 "http://www.w3.org/TR/2001/REC-SVG-20010904/DTD/svg10.dtd">
<svg version="1.0" xmlns="http://www.w3.org/2000/svg"
 width="2049.000000pt" height="880.000000pt" viewBox="0 0 2049.000000 880.000000"
 preserveAspectRatio="xMidYMid meet">

<g transform="translate(0.000000,880.000000) scale(0.100000,-0.100000)"
fill="#000000" stroke="none">
<path d="M0 4400 l0 -4400 10245 0 10245 0 0 3413 c0 3255 -1 3410 -18 3377
-51 -103 -206 -108 -258 -8 -48 93 9 201 112 214 53 7 121 -29 146 -76 18 -34
18 -10 18 923 l0 957 -10245 0 -10245 0 0 -4400z m13308 3871 c6 0 12 -8 12
-16 0 -15 -7 -19 -78 -45 -62 -24 -62 -23 -62 -507 0 -472 5 -524 53 -619 58
-115 157 -190 297 -225 71 -18 103 -21 195 -16 131 6 193 24 273 77 68 46 121
115 154 205 22 58 22 73 26 519 2 330 0 467 -8 487 -18 42 -43 60 -112 79 -55
15 -63 20 -63 41 l0 24 195 -2 c107 -1 198 -2 203 -2 4 -1 7 -9 7 -18 0 -10
-17 -28 -40 -41 -78 -44 -74 -21 -81 -532 -5 -420 -7 -461 -27 -532 -55 -202
-174 -322 -372 -375 -96 -26 -346 -23 -452 5 -110 30 -181 66 -247 128 -68 62
-113 142 -143 251 -20 73 -22 108 -27 539 -5 371 -9 464 -20 478 -7 9 -39 23
-70 32 -31 9 -62 21 -68 26 -18 15 -16 36 4 40 16 3 423 2 451 -1z m-9438 -20
c0 -11 -8 -22 -19 -26 -31 -9 -71 -52 -71 -75 0 -28 428 -1090 447 -1110 12
-13 15 -13 26 5 27 47 197 462 197 483 0 38 -239 603 -268 635 -24 26 -39 32
-132 54 -25 6 -36 15 -38 31 l-3 22 230 0 c220 0 258 -5 229 -29 -7 -6 -28
-22 -45 -37 -24 -18 -33 -34 -33 -54 0 -26 111 -325 141 -382 12 -21 12 -21
27 7 31 59 129 301 135 334 9 44 -10 74 -66 102 -44 23 -59 38 -51 51 3 4 81
8 175 8 141 0 169 -2 169 -14 0 -8 -13 -22 -28 -32 -47 -27 -87 -99 -188 -333
-88 -206 -96 -228 -92 -275 5 -55 197 -540 229 -579 16 -20 19 -20 32 -7 22
23 429 1029 434 1075 6 51 -14 77 -82 103 -35 14 -50 25 -50 38 0 18 11 19
184 19 200 0 223 -7 157 -46 -19 -11 -44 -35 -55 -52 -11 -18 -135 -304 -276
-637 -141 -333 -275 -646 -297 -697 -42 -96 -66 -119 -95 -91 -8 8 -72 154
-144 324 -124 296 -142 334 -154 322 -3 -3 -63 -149 -134 -324 -71 -175 -137
-323 -145 -329 -25 -15 -48 6 -73 66 -13 30 -137 340 -278 689 -140 349 -263
646 -273 660 -11 14 -42 36 -70 50 -47 23 -63 45 -45 63 3 4 93 7 200 7 184 0
193 -1 193 -19z m3720 5 c0 -8 -16 -24 -36 -36 -41 -26 -58 -61 -48 -104 6
-28 418 -1011 447 -1066 31 -60 35 -53 252 482 256 631 260 651 140 682 -39 9
-51 17 -53 34 l-3 22 183 -2 c167 -3 183 -5 183 -21 0 -10 -15 -25 -35 -35
-21 -10 -44 -34 -58 -59 -12 -22 -148 -340 -302 -705 -154 -364 -285 -674
-293 -688 -18 -36 -47 -32 -67 10 -10 19 -143 331 -296 694 -153 362 -287 673
-299 690 -13 20 -40 39 -75 53 -39 15 -56 28 -58 42 -3 21 0 21 207 21 176 0
211 -2 211 -14z m4200 -256 c30 -16 73 -96 65 -120 -10 -32 -65 -90 -84 -90
-19 0 -47 27 -76 73 -21 33 -14 55 35 111 36 40 34 40 60 26z m-1437 -39 c19
-21 38 -48 41 -59 9 -27 -15 -73 -55 -106 l-32 -27 -29 28 c-40 37 -61 79 -52
105 7 22 72 98 84 98 4 0 23 -18 43 -39z m5366 -13 c17 -23 31 -54 31 -68 0
-28 -62 -110 -84 -110 -27 0 -86 81 -86 118 0 25 67 102 90 102 10 0 32 -19
49 -42z m3216 10 c46 -54 49 -75 20 -124 -46 -78 -78 -79 -129 -5 -33 48 -31
69 14 124 38 45 60 47 95 5z m-11994 -133 c4 -16 7 -60 8 -97 l1 -68 150 0
c96 0 150 -4 150 -10 0 -6 -7 -26 -14 -45 l-15 -35 -135 0 -136 0 0 -334 0
-334 26 -31 c46 -55 158 -65 245 -20 49 24 69 24 69 -1 0 -42 -147 -100 -254
-100 -89 0 -135 16 -182 64 -59 59 -64 92 -64 451 0 295 -1 305 -19 305 -36 0
-33 21 6 55 43 36 87 111 98 165 12 65 16 71 38 68 15 -2 24 -12 28 -33z
m12399 -65 l5 -95 285 0 c275 0 285 -1 285 -19 0 -15 -12 -23 -49 -32 -27 -7
-53 -19 -58 -26 -17 -26 1 -86 113 -371 98 -247 115 -285 126 -271 19 26 173
502 180 554 7 59 -19 92 -87 115 -47 16 -65 38 -37 47 6 3 80 4 162 4 142 -2
150 -3 153 -22 2 -15 -6 -23 -32 -32 -19 -7 -42 -24 -51 -38 -9 -14 -54 -150
-100 -303 -113 -372 -217 -676 -272 -790 -62 -129 -168 -238 -294 -300 -101
-50 -200 -66 -242 -38 -27 18 -60 78 -48 90 4 4 50 9 102 10 84 2 102 6 161
35 158 78 299 284 302 442 1 62 -6 83 -158 455 -88 215 -164 393 -170 398 -6
4 -69 6 -141 5 l-130 -3 0 -330 c0 -360 0 -360 58 -395 44 -27 146 -27 206 0
51 24 81 26 81 6 0 -38 -122 -93 -225 -103 -133 -12 -230 40 -260 140 -12 40
-15 114 -15 364 l0 313 -25 6 c-14 3 -25 9 -25 13 0 4 18 25 41 46 46 45 83
112 94 170 9 52 13 57 38 53 20 -3 22 -10 27 -98z m-9738 72 c5 -5 -4 -26 -21
-49 l-29 -40 -89 -5 c-75 -3 -97 -9 -148 -36 -83 -45 -148 -103 -206 -185
l-49 -70 0 -274 c0 -341 0 -340 132 -358 50 -6 67 -20 50 -37 -7 -7 -147 -10
-414 -10 -222 0 -409 1 -415 1 -26 2 -12 31 22 45 21 9 39 26 45 41 6 15 10
156 10 339 0 351 3 336 -74 357 -52 14 -43 35 26 63 32 13 80 38 107 56 29 18
60 30 73 28 l23 -3 5 -411 c6 -470 0 -444 95 -465 64 -14 99 -7 131 28 l24 26
0 312 c0 296 -1 312 -20 332 -20 23 -32 27 -92 38 -56 9 -48 31 17 50 30 8 89
33 131 55 116 61 124 57 124 -63 l0 -72 39 65 c94 157 196 229 356 254 42 6
136 -1 147 -12z m8709 8 c16 -9 17 -14 8 -33 -30 -58 -48 -67 -129 -67 -69 0
-85 -4 -151 -37 -86 -43 -189 -141 -232 -221 l-28 -51 3 -275 3 -276 26 -25
c18 -19 41 -28 80 -34 62 -8 79 -16 79 -37 0 -12 -36 -14 -230 -14 -221 0
-230 1 -230 19 0 12 9 22 23 26 12 4 37 18 55 32 l32 24 0 315 0 315 -25 24
c-13 14 -35 25 -49 25 -35 0 -78 18 -74 31 2 6 35 21 73 33 39 13 100 40 138
60 87 49 97 43 97 -61 0 -44 4 -72 9 -68 6 3 24 31 42 63 49 85 144 175 215
202 102 38 224 52 265 30z m649 -547 l0 -404 24 -24 c14 -14 41 -26 69 -30 55
-9 87 -28 71 -45 -9 -9 -182 -14 -396 -10 -29 0 -20 30 12 42 58 20 60 35 60
382 0 307 -1 316 -21 335 -11 10 -36 22 -55 26 -43 8 -45 32 -3 47 17 6 52 22
77 36 26 13 67 35 91 48 33 18 47 21 58 13 10 -9 13 -89 13 -416z m-4290 391
c6 -14 10 -53 10 -86 l0 -61 43 39 c91 85 187 120 299 111 154 -13 253 -99
292 -253 12 -47 16 -116 16 -290 0 -163 4 -236 13 -254 21 -42 74 -70 131 -70
57 0 68 5 85 37 15 29 16 636 1 664 -6 11 -30 24 -55 30 -33 8 -45 16 -45 30
0 11 6 19 14 19 12 0 99 43 199 97 57 31 57 32 57 -411 0 -460 -4 -437 85
-457 63 -14 91 -31 81 -47 -5 -9 -116 -12 -407 -12 -379 0 -399 1 -399 18 0
11 14 25 34 35 26 12 37 26 45 54 14 50 14 447 0 512 -40 186 -238 265 -403
161 -86 -55 -86 -55 -86 -378 l0 -283 24 -24 c13 -13 41 -27 62 -30 70 -12 89
-21 92 -43 l3 -22 -233 2 c-192 3 -233 5 -233 17 0 8 18 20 40 28 83 28 80 15
83 355 3 310 -1 349 -36 363 -10 4 -39 13 -67 19 -29 7 -50 17 -50 25 0 7 34
25 80 41 44 15 106 41 139 58 32 18 62 32 67 32 5 0 14 -12 19 -26z m-4298 14
c1 -2 5 -189 8 -417 l5 -414 27 -20 c38 -28 138 -36 173 -13 42 27 47 69 43
378 -3 330 0 319 -97 338 -30 6 -56 12 -59 15 -13 13 12 34 47 40 22 4 80 26
128 51 48 24 98 44 111 44 21 0 22 -3 22 -86 l0 -86 53 48 c28 26 81 61 117
78 57 27 75 31 150 30 164 -1 266 -76 318 -232 12 -36 17 -110 21 -309 6 -258
6 -262 30 -287 30 -32 111 -51 157 -36 23 8 36 20 43 42 7 20 11 143 11 335
l0 304 -25 24 c-13 14 -32 25 -43 25 -10 0 -26 6 -36 13 -22 16 -10 28 44 46
19 6 64 29 100 51 69 43 104 50 114 24 3 -9 6 -195 6 -414 l0 -399 26 -20 c14
-11 49 -25 79 -31 51 -11 76 -32 53 -46 -15 -9 -782 -9 -797 0 -20 13 -12 25
28 45 21 11 41 27 45 36 3 9 6 134 6 278 0 253 -1 264 -24 312 -27 59 -88 118
-141 135 -23 8 -67 11 -110 8 -85 -6 -148 -36 -192 -95 l-28 -36 0 -283 0
-282 24 -26 c13 -14 38 -28 55 -31 88 -18 106 -26 106 -45 0 -11 -6 -20 -12
-21 -16 -1 -810 -1 -820 0 -21 2 -4 33 23 43 56 19 59 42 59 391 0 249 -3 317
-13 326 -10 8 -37 5 -103 -12 l-89 -22 13 -40 c8 -22 14 -74 14 -116 1 -192
-136 -324 -347 -336 -44 -3 -100 0 -124 5 -54 13 -84 1 -111 -43 -25 -41 -25
-70 -1 -94 31 -31 84 -40 276 -45 198 -6 263 -19 316 -63 42 -36 59 -79 59
-150 -1 -106 -63 -198 -170 -253 -190 -97 -489 -83 -612 28 -52 47 -71 86 -71
147 0 61 14 90 56 115 38 24 70 25 87 5 10 -12 8 -21 -9 -48 -25 -40 -27 -96
-6 -137 35 -67 166 -107 314 -95 177 14 281 85 281 194 0 63 -19 70 -212 82
-210 12 -292 24 -348 52 -54 26 -82 75 -88 154 -5 60 20 122 68 168 l29 28
-34 38 c-98 109 -117 258 -50 396 31 63 89 117 164 152 50 23 68 26 172 26
l117 0 81 -42 c67 -36 91 -43 136 -43 68 0 175 36 253 85 47 29 94 44 104 33z
m-4681 -22 c32 -7 77 -24 101 -39 88 -52 173 -167 193 -263 13 -63 9 -64 -331
-64 l-304 0 0 -53 c0 -110 42 -218 117 -298 65 -69 132 -100 220 -100 91 0
134 12 215 61 110 66 132 49 44 -36 -128 -124 -328 -166 -491 -104 -144 55
-265 247 -265 420 0 183 93 365 221 435 96 52 182 65 280 41z m819 -7 c80 -17
85 -25 85 -125 0 -104 -13 -117 -48 -47 -44 85 -93 124 -173 138 -94 15 -172
-37 -181 -119 -9 -80 39 -121 249 -211 153 -65 200 -126 201 -261 0 -90 -33
-165 -99 -223 -89 -78 -227 -93 -348 -38 -32 15 -69 27 -82 27 -34 0 -44 33
-44 148 0 151 26 165 69 37 47 -140 104 -190 216 -189 116 1 185 68 185 180 0
69 -43 108 -203 187 -73 36 -148 79 -169 96 -114 96 -100 281 27 368 74 50
180 61 315 32z m5960 11 c91 -15 183 -61 212 -108 23 -36 23 -44 28 -364 l5
-326 24 -26 c20 -22 33 -26 78 -26 46 0 54 -3 51 -17 -9 -49 -156 -64 -222
-24 -20 13 -43 36 -51 52 l-15 29 -53 -35 c-152 -101 -386 -114 -461 -25 -43
52 -57 135 -35 213 30 108 181 191 442 242 l87 18 0 96 c-1 181 -66 251 -235
251 -141 0 -178 -35 -173 -168 l3 -77 -35 -3 c-52 -4 -100 29 -100 69 0 70 68
156 156 196 91 41 177 51 294 33z m4785 -29 c104 -51 194 -171 211 -278 6 -40
5 -43 -20 -53 -17 -6 -145 -10 -322 -10 l-294 0 0 -37 c0 -21 7 -68 14 -104
40 -187 172 -309 335 -309 76 0 142 21 221 70 74 46 80 47 80 21 0 -27 -88
-105 -159 -140 -125 -63 -248 -75 -362 -36 -185 65 -308 282 -279 493 22 159
78 271 175 344 112 85 274 101 400 39z m1272 14 c39 -12 54 -22 58 -38 9 -35
1 -172 -10 -172 -5 0 -22 23 -37 50 -48 90 -117 135 -206 135 -102 0 -179 -99
-138 -178 24 -46 72 -78 208 -139 68 -30 138 -66 156 -79 71 -55 100 -178 68
-289 -33 -113 -159 -205 -280 -205 -48 0 -128 20 -173 43 -18 10 -43 17 -56
17 -42 0 -48 18 -45 151 4 147 18 163 53 59 42 -123 68 -161 132 -194 39 -20
132 -21 176 -2 72 29 117 121 97 195 -15 55 -55 87 -212 164 -162 80 -209 123
-228 209 -29 128 55 252 195 289 43 12 181 3 242 -16z m-2317 -15 c0 -13 -13
-21 -50 -30 -67 -16 -76 -29 -57 -82 29 -85 230 -569 234 -564 3 2 52 104 109
225 155 329 161 387 48 416 -37 9 -49 17 -49 31 0 18 10 19 160 21 196 2 226
-11 131 -56 l-43 -21 -194 -411 c-168 -355 -196 -409 -214 -407 -16 2 -53 78
-193 398 -95 217 -180 403 -190 413 -9 11 -34 28 -54 38 -36 19 -45 29 -32 41
3 3 93 6 200 6 179 -1 194 -2 194 -18z"/>
<path d="M9580 7581 c-40 -21 -75 -68 -90 -120 -14 -52 -12 -170 4 -225 40
-131 163 -191 276 -133 36 18 51 33 74 80 25 50 29 69 28 140 0 126 -40 215
-113 256 -47 27 -131 28 -179 2z"/>
<path d="M5493 7619 c-70 -35 -142 -144 -143 -216 l0 -33 219 0 c247 0 248 0
238 71 -13 101 -129 197 -237 199 -19 0 -54 -9 -77 -21z"/>
<path d="M12450 7209 c-47 -10 -118 -35 -158 -55 -59 -29 -79 -45 -103 -82
-50 -79 -34 -186 34 -236 41 -30 165 -29 222 1 48 26 90 68 104 106 16 42 15
287 -1 286 -7 0 -51 -9 -98 -20z"/>
<path d="M16971 7618 c-68 -33 -141 -150 -141 -225 l0 -23 214 0 c118 0 221 3
230 6 26 10 20 79 -11 135 -60 112 -188 159 -292 107z"/>
<path d="M20282 6957 c-76 -43 -77 -160 0 -207 59 -36 127 -19 162 40 30 52
13 130 -36 164 -27 19 -94 20 -126 3z m106 -33 c27 -19 28 -49 2 -71 -19 -17
-19 -17 1 -50 29 -46 1 -44 -29 2 -29 46 -52 46 -52 0 0 -19 -4 -35 -10 -35
-6 0 -10 35 -10 85 l0 85 38 0 c21 0 48 -7 60 -16z"/>
<path d="M20310 6884 c0 -23 3 -25 33 -22 24 2 33 8 35 26 3 19 -1 22 -32 22
-32 0 -36 -3 -36 -26z"/>
</g>
</svg>
